<svg width="570" height="154" viewBox="0 0 570 154" fill="none" xmlns="http://www.w3.org/2000/svg">
<path d="M33.8622 88L45.3168 18.1818H54.8622L43.4077 88H33.8622ZM2.39631 70L3.99858 60.4545H57.7259L56.1236 70H2.39631ZM9.31676 88L20.7713 18.1818H30.3168L18.8622 88H9.31676ZM6.45312 45.7273L8.02131 36.1818H61.7486L60.1804 45.7273H6.45312ZM69.3253 107.636V35.6364H81.4616V44.2955H82.1776C82.8139 43.0227 83.7116 41.6705 84.8707 40.2386C86.0298 38.7841 87.598 37.5455 89.5753 36.5227C91.5526 35.4773 94.0753 34.9545 97.1435 34.9545C101.189 34.9545 104.837 35.9886 108.087 38.0568C111.359 40.1023 113.95 43.1364 115.859 47.1591C117.791 51.1591 118.757 56.0682 118.757 61.8864C118.757 67.6364 117.814 72.5227 115.928 76.5455C114.041 80.5682 111.473 83.6364 108.223 85.75C104.973 87.8636 101.291 88.9205 97.1776 88.9205C94.1776 88.9205 91.6889 88.4205 89.7116 87.4205C87.7344 86.4205 86.1435 85.2159 84.9389 83.8068C83.7571 82.375 82.8366 81.0227 82.1776 79.75H81.6662V107.636H69.3253ZM81.4276 61.8182C81.4276 65.2045 81.9048 68.1705 82.8594 70.7159C83.8366 73.2614 85.2344 75.25 87.0526 76.6818C88.8935 78.0909 91.1207 78.7955 93.7344 78.7955C96.4616 78.7955 98.7457 78.0682 100.587 76.6136C102.428 75.1364 103.814 73.125 104.746 70.5795C105.7 68.0114 106.178 65.0909 106.178 61.8182C106.178 58.5682 105.712 55.6818 104.78 53.1591C103.848 50.6364 102.462 48.6591 100.621 47.2273C98.7798 45.7955 96.4844 45.0795 93.7344 45.0795C91.098 45.0795 88.8594 45.7727 87.0185 47.1591C85.1776 48.5455 83.7798 50.4886 82.8253 52.9886C81.8935 55.4886 81.4276 58.4318 81.4276 61.8182ZM129.325 88V35.6364H141.291V44.3636H141.837C142.791 41.3409 144.428 39.0114 146.746 37.375C149.087 35.7159 151.757 34.8864 154.757 34.8864C155.439 34.8864 156.2 34.9205 157.041 34.9886C157.905 35.0341 158.621 35.1136 159.189 35.2273V46.5795C158.666 46.3977 157.837 46.2386 156.7 46.1023C155.587 45.9432 154.507 45.8636 153.462 45.8636C151.212 45.8636 149.189 46.3523 147.393 47.3295C145.621 48.2841 144.223 49.6136 143.2 51.3182C142.178 53.0227 141.666 54.9886 141.666 57.2159V88H129.325ZM188.072 89.0227C182.959 89.0227 178.527 87.8977 174.777 85.6477C171.027 83.3977 168.118 80.25 166.05 76.2045C164.004 72.1591 162.982 67.4318 162.982 62.0227C162.982 56.6136 164.004 51.875 166.05 47.8068C168.118 43.7386 171.027 40.5795 174.777 38.3295C178.527 36.0795 182.959 34.9545 188.072 34.9545C193.186 34.9545 197.618 36.0795 201.368 38.3295C205.118 40.5795 208.016 43.7386 210.061 47.8068C212.129 51.875 213.163 56.6136 213.163 62.0227C213.163 67.4318 212.129 72.1591 210.061 76.2045C208.016 80.25 205.118 83.3977 201.368 85.6477C197.618 87.8977 193.186 89.0227 188.072 89.0227ZM188.141 79.1364C190.913 79.1364 193.232 78.375 195.095 76.8523C196.959 75.3068 198.345 73.2386 199.254 70.6477C200.186 68.0568 200.652 65.1705 200.652 61.9886C200.652 58.7841 200.186 55.8864 199.254 53.2955C198.345 50.6818 196.959 48.6023 195.095 47.0568C193.232 45.5114 190.913 44.7386 188.141 44.7386C185.3 44.7386 182.936 45.5114 181.05 47.0568C179.186 48.6023 177.788 50.6818 176.857 53.2955C175.947 55.8864 175.493 58.7841 175.493 61.9886C175.493 65.1705 175.947 68.0568 176.857 70.6477C177.788 73.2386 179.186 75.3068 181.05 76.8523C182.936 78.375 185.3 79.1364 188.141 79.1364ZM243.07 88.9205C238.956 88.9205 235.274 87.8636 232.024 85.75C228.774 83.6364 226.206 80.5682 224.32 76.5455C222.433 72.5227 221.49 67.6364 221.49 61.8864C221.49 56.0682 222.445 51.1591 224.354 47.1591C226.286 43.1364 228.888 40.1023 232.161 38.0568C235.433 35.9886 239.081 34.9545 243.104 34.9545C246.172 34.9545 248.695 35.4773 250.672 36.5227C252.649 37.5455 254.217 38.7841 255.376 40.2386C256.536 41.6705 257.433 43.0227 258.07 44.2955H258.581V18.1818H270.956V88H258.82V79.75H258.07C257.433 81.0227 256.513 82.375 255.308 83.8068C254.104 85.2159 252.513 86.4205 250.536 87.4205C248.558 88.4205 246.07 88.9205 243.07 88.9205ZM246.513 78.7955C249.126 78.7955 251.354 78.0909 253.195 76.6818C255.036 75.25 256.433 73.2614 257.388 70.7159C258.342 68.1705 258.82 65.2045 258.82 61.8182C258.82 58.4318 258.342 55.4886 257.388 52.9886C256.456 50.4886 255.07 48.5455 253.229 47.1591C251.411 45.7727 249.172 45.0795 246.513 45.0795C243.763 45.0795 241.467 45.7955 239.626 47.2273C237.786 48.6591 236.399 50.6364 235.467 53.1591C234.536 55.6818 234.07 58.5682 234.07 61.8182C234.07 65.0909 234.536 68.0114 235.467 70.5795C236.422 73.125 237.82 75.1364 239.661 76.6136C241.524 78.0682 243.808 78.7955 246.513 78.7955ZM317.482 65.9773V35.6364H329.822V88H317.857V78.6932H317.311C316.129 81.625 314.186 84.0227 311.482 85.8864C308.8 87.75 305.493 88.6818 301.561 88.6818C298.129 88.6818 295.095 87.9205 292.459 86.3977C289.845 84.8523 287.8 82.6136 286.322 79.6818C284.845 76.7273 284.107 73.1591 284.107 68.9773V35.6364H296.447V67.0682C296.447 70.3864 297.357 73.0227 299.175 74.9773C300.993 76.9318 303.379 77.9091 306.334 77.9091C308.152 77.9091 309.913 77.4659 311.618 76.5795C313.322 75.6932 314.72 74.375 315.811 72.625C316.925 70.8523 317.482 68.6364 317.482 65.9773ZM365.354 89.0227C360.126 89.0227 355.638 87.875 351.888 85.5795C348.161 83.2841 345.286 80.1136 343.263 76.0682C341.263 72 340.263 67.3182 340.263 62.0227C340.263 56.7045 341.286 52.0114 343.331 47.9432C345.376 43.8523 348.263 40.6705 351.99 38.3977C355.74 36.1023 360.172 34.9545 365.286 34.9545C369.536 34.9545 373.297 35.7386 376.57 37.3068C379.865 38.8523 382.49 41.0455 384.445 43.8864C386.399 46.7045 387.513 50 387.786 53.7727H375.99C375.513 51.25 374.376 49.1477 372.581 47.4659C370.808 45.7614 368.433 44.9091 365.456 44.9091C362.933 44.9091 360.717 45.5909 358.808 46.9545C356.899 48.2955 355.411 50.2273 354.342 52.75C353.297 55.2727 352.774 58.2955 352.774 61.8182C352.774 65.3864 353.297 68.4545 354.342 71.0227C355.388 73.5682 356.854 75.5341 358.74 76.9205C360.649 78.2841 362.888 78.9659 365.456 78.9659C367.274 78.9659 368.899 78.625 370.331 77.9432C371.786 77.2386 373.001 76.2273 373.979 74.9091C374.956 73.5909 375.626 71.9886 375.99 70.1023H387.786C387.49 73.8068 386.399 77.0909 384.513 79.9545C382.626 82.7955 380.058 85.0227 376.808 86.6364C373.558 88.2273 369.74 89.0227 365.354 89.0227ZM424.067 35.6364V45.1818H393.964V35.6364H424.067ZM401.396 23.0909H413.737V72.25C413.737 73.9091 413.987 75.1818 414.487 76.0682C415.01 76.9318 415.692 77.5227 416.533 77.8409C417.374 78.1591 418.305 78.3182 419.328 78.3182C420.101 78.3182 420.805 78.2614 421.442 78.1477C422.101 78.0341 422.601 77.9318 422.942 77.8409L425.021 87.4886C424.362 87.7159 423.419 87.9659 422.192 88.2386C420.987 88.5114 419.51 88.6705 417.76 88.7159C414.669 88.8068 411.885 88.3409 409.408 87.3182C406.93 86.2727 404.964 84.6591 403.51 82.4773C402.078 80.2955 401.374 77.5682 401.396 74.2955V23.0909ZM447.854 18.1818V88H435.513V18.1818H447.854ZM475.612 89.0568C472.294 89.0568 469.305 88.4659 466.646 87.2841C464.01 86.0795 461.919 84.3068 460.374 81.9659C458.851 79.625 458.089 76.7386 458.089 73.3068C458.089 70.3523 458.635 67.9091 459.726 65.9773C460.817 64.0455 462.305 62.5 464.192 61.3409C466.078 60.1818 468.203 59.3068 470.567 58.7159C472.953 58.1023 475.419 57.6591 477.964 57.3864C481.033 57.0682 483.521 56.7841 485.43 56.5341C487.339 56.2614 488.726 55.8523 489.589 55.3068C490.476 54.7386 490.919 53.8636 490.919 52.6818V52.4773C490.919 49.9091 490.158 47.9205 488.635 46.5114C487.112 45.1023 484.919 44.3977 482.055 44.3977C479.033 44.3977 476.635 45.0568 474.862 46.375C473.112 47.6932 471.93 49.25 471.317 51.0455L459.794 49.4091C460.703 46.2273 462.203 43.5682 464.294 41.4318C466.385 39.2727 468.942 37.6591 471.964 36.5909C474.987 35.5 478.328 34.9545 481.987 34.9545C484.51 34.9545 487.021 35.25 489.521 35.8409C492.021 36.4318 494.305 37.4091 496.374 38.7727C498.442 40.1136 500.101 41.9432 501.351 44.2614C502.624 46.5795 503.26 49.4773 503.26 52.9545V88H491.396V80.8068H490.987C490.237 82.2614 489.18 83.625 487.817 84.8977C486.476 86.1477 484.783 87.1591 482.737 87.9318C480.714 88.6818 478.339 89.0568 475.612 89.0568ZM478.817 79.9886C481.294 79.9886 483.442 79.5 485.26 78.5227C487.078 77.5227 488.476 76.2045 489.453 74.5682C490.453 72.9318 490.953 71.1477 490.953 69.2159V63.0455C490.567 63.3636 489.908 63.6591 488.976 63.9318C488.067 64.2045 487.044 64.4432 485.908 64.6477C484.771 64.8523 483.646 65.0341 482.533 65.1932C481.419 65.3523 480.453 65.4886 479.635 65.6023C477.794 65.8523 476.146 66.2614 474.692 66.8295C473.237 67.3977 472.089 68.1932 471.249 69.2159C470.408 70.2159 469.987 71.5114 469.987 73.1023C469.987 75.375 470.817 77.0909 472.476 78.25C474.135 79.4091 476.249 79.9886 478.817 79.9886ZM516.214 88V18.1818H528.555V44.2955H529.067C529.703 43.0227 530.601 41.6705 531.76 40.2386C532.919 38.7841 534.487 37.5455 536.464 36.5227C538.442 35.4773 540.964 34.9545 544.033 34.9545C548.078 34.9545 551.726 35.9886 554.976 38.0568C558.249 40.1023 560.839 43.1364 562.749 47.1591C564.68 51.1591 565.646 56.0682 565.646 61.8864C565.646 67.6364 564.703 72.5227 562.817 76.5455C560.93 80.5682 558.362 83.6364 555.112 85.75C551.862 87.8636 548.18 88.9205 544.067 88.9205C541.067 88.9205 538.578 88.4205 536.601 87.4205C534.624 86.4205 533.033 85.2159 531.828 83.8068C530.646 82.375 529.726 81.0227 529.067 79.75H528.351V88H516.214ZM528.317 61.8182C528.317 65.2045 528.794 68.1705 529.749 70.7159C530.726 73.2614 532.124 75.25 533.942 76.6818C535.783 78.0909 538.01 78.7955 540.624 78.7955C543.351 78.7955 545.635 78.0682 547.476 76.6136C549.317 75.1364 550.703 73.125 551.635 70.5795C552.589 68.0114 553.067 65.0909 553.067 61.8182C553.067 58.5682 552.601 55.6818 551.669 53.1591C550.737 50.6364 549.351 48.6591 547.51 47.2273C545.669 45.7955 543.374 45.0795 540.624 45.0795C537.987 45.0795 535.749 45.7727 533.908 47.1591C532.067 48.5455 530.669 50.4886 529.714 52.9886C528.783 55.4886 528.317 58.4318 528.317 61.8182Z" fill="black"/>
<path d="M4.41 153.169C3.64533 153.169 2.91167 153.045 2.209 152.797C1.527 152.549 0.938 152.177 0.442 151.681L1.465 150.038C1.87833 150.431 2.32267 150.73 2.798 150.937C3.294 151.164 3.84167 151.278 4.441 151.278C5.16433 151.278 5.78433 151.071 6.301 150.658C6.83833 150.265 7.34467 149.563 7.82 148.55L8.874 146.163L9.122 145.822L15.818 130.725H17.988L9.835 148.953C9.38033 150.007 8.874 150.844 8.316 151.464C7.77867 152.084 7.18967 152.518 6.549 152.766C5.90833 153.035 5.19533 153.169 4.41 153.169ZM8.75 147.465L1.248 130.725H3.542L10.176 145.667L8.75 147.465ZM21.4171 147V130.725H36.0491V147H33.8481V132.058L34.4061 132.647H23.0601L23.6181 132.058V147H21.4171ZM52.4118 147V143.404L52.3188 142.815V136.801C52.3188 135.416 51.9261 134.352 51.1408 133.608C50.3761 132.864 49.2291 132.492 47.6998 132.492C46.6458 132.492 45.6435 132.668 44.6928 133.019C43.7421 133.37 42.9361 133.835 42.2748 134.414L41.2828 132.771C42.1095 132.068 43.1015 131.531 44.2588 131.159C45.4161 130.766 46.6355 130.57 47.9168 130.57C50.0248 130.57 51.6471 131.097 52.7838 132.151C53.9411 133.184 54.5198 134.765 54.5198 136.894V147H52.4118ZM46.8008 147.155C45.5815 147.155 44.5171 146.959 43.6078 146.566C42.7191 146.153 42.0371 145.595 41.5618 144.892C41.0865 144.169 40.8488 143.342 40.8488 142.412C40.8488 141.565 41.0451 140.8 41.4378 140.118C41.8511 139.415 42.5125 138.857 43.4218 138.444C44.3518 138.01 45.5918 137.793 47.1418 137.793H52.7528V139.436H47.2038C45.6331 139.436 44.5378 139.715 43.9178 140.273C43.3185 140.831 43.0188 141.523 43.0188 142.35C43.0188 143.28 43.3805 144.024 44.1038 144.582C44.8271 145.14 45.8398 145.419 47.1418 145.419C48.3818 145.419 49.4461 145.14 50.3348 144.582C51.2441 144.003 51.9055 143.177 52.3188 142.102L52.8148 143.621C52.4015 144.696 51.6781 145.553 50.6448 146.194C49.6321 146.835 48.3508 147.155 46.8008 147.155ZM72.314 147L65.618 138.94L67.447 137.855L74.918 147H72.314ZM60.379 147V130.725H62.58V147H60.379ZM61.898 139.746V137.855H67.137V139.746H61.898ZM67.633 139.095L65.587 138.785L72.066 130.725H74.453L67.633 139.095ZM84.5125 147.155C82.9419 147.155 81.5262 146.804 80.2655 146.101C79.0255 145.378 78.0439 144.396 77.3205 143.156C76.5972 141.895 76.2355 140.459 76.2355 138.847C76.2355 137.214 76.5972 135.778 77.3205 134.538C78.0439 133.298 79.0255 132.327 80.2655 131.624C81.5055 130.921 82.9212 130.57 84.5125 130.57C86.1245 130.57 87.5505 130.921 88.7905 131.624C90.0512 132.327 91.0329 133.298 91.7355 134.538C92.4589 135.778 92.8205 137.214 92.8205 138.847C92.8205 140.459 92.4589 141.895 91.7355 143.156C91.0329 144.396 90.0512 145.378 88.7905 146.101C87.5299 146.804 86.1039 147.155 84.5125 147.155ZM84.5125 145.202C85.6905 145.202 86.7342 144.944 87.6435 144.427C88.5529 143.89 89.2659 143.146 89.7825 142.195C90.3199 141.224 90.5885 140.108 90.5885 138.847C90.5885 137.566 90.3199 136.45 89.7825 135.499C89.2659 134.548 88.5529 133.815 87.6435 133.298C86.7342 132.761 85.7009 132.492 84.5435 132.492C83.3862 132.492 82.3529 132.761 81.4435 133.298C80.5342 133.815 79.8109 134.548 79.2735 135.499C78.7362 136.45 78.4675 137.566 78.4675 138.847C78.4675 140.108 78.7362 141.224 79.2735 142.195C79.8109 143.146 80.5342 143.89 81.4435 144.427C82.3529 144.944 83.3759 145.202 84.5125 145.202ZM97.5246 147V130.725H104.717C106.556 130.725 108.003 131.076 109.057 131.779C110.131 132.482 110.669 133.515 110.669 134.879C110.669 136.202 110.162 137.225 109.15 137.948C108.137 138.651 106.804 139.002 105.151 139.002L105.585 138.351C107.527 138.351 108.953 138.713 109.863 139.436C110.772 140.159 111.227 141.203 111.227 142.567C111.227 143.972 110.71 145.068 109.677 145.853C108.664 146.618 107.083 147 104.934 147H97.5246ZM99.6636 145.264H104.841C106.225 145.264 107.269 145.047 107.972 144.613C108.695 144.158 109.057 143.435 109.057 142.443C109.057 141.451 108.736 140.728 108.096 140.273C107.455 139.818 106.442 139.591 105.058 139.591H99.6636V145.264ZM99.6636 137.948H104.562C105.822 137.948 106.783 137.71 107.445 137.235C108.127 136.76 108.468 136.067 108.468 135.158C108.468 134.249 108.127 133.567 107.445 133.112C106.783 132.657 105.822 132.43 104.562 132.43H99.6636V137.948ZM128.32 147L121.624 138.94L123.453 137.855L130.924 147H128.32ZM116.385 147V130.725H118.586V147H116.385ZM117.904 139.746V137.855H123.143V139.746H117.904ZM123.639 139.095L121.593 138.785L128.072 130.725H130.459L123.639 139.095ZM144.201 147V143.404L144.108 142.815V136.801C144.108 135.416 143.715 134.352 142.93 133.608C142.165 132.864 141.018 132.492 139.489 132.492C138.435 132.492 137.433 132.668 136.482 133.019C135.531 133.37 134.725 133.835 134.064 134.414L133.072 132.771C133.899 132.068 134.891 131.531 136.048 131.159C137.205 130.766 138.425 130.57 139.706 130.57C141.814 130.57 143.436 131.097 144.573 132.151C145.73 133.184 146.309 134.765 146.309 136.894V147H144.201ZM138.59 147.155C137.371 147.155 136.306 146.959 135.397 146.566C134.508 146.153 133.826 145.595 133.351 144.892C132.876 144.169 132.638 143.342 132.638 142.412C132.638 141.565 132.834 140.8 133.227 140.118C133.64 139.415 134.302 138.857 135.211 138.444C136.141 138.01 137.381 137.793 138.931 137.793H144.542V139.436H138.993C137.422 139.436 136.327 139.715 135.707 140.273C135.108 140.831 134.808 141.523 134.808 142.35C134.808 143.28 135.17 144.024 135.893 144.582C136.616 145.14 137.629 145.419 138.931 145.419C140.171 145.419 141.235 145.14 142.124 144.582C143.033 144.003 143.695 143.177 144.108 142.102L144.604 143.621C144.191 144.696 143.467 145.553 142.434 146.194C141.421 146.835 140.14 147.155 138.59 147.155ZM161.056 140.304C160.602 140.304 160.209 140.139 159.878 139.808C159.568 139.477 159.413 139.074 159.413 138.599C159.413 138.103 159.568 137.7 159.878 137.39C160.209 137.059 160.602 136.894 161.056 136.894C161.532 136.894 161.924 137.059 162.234 137.39C162.544 137.7 162.699 138.103 162.699 138.599C162.699 139.074 162.544 139.477 162.234 139.808C161.924 140.139 161.532 140.304 161.056 140.304ZM184.606 147.155C183.201 147.155 181.93 146.835 180.793 146.194C179.657 145.533 178.747 144.592 178.065 143.373C177.404 142.133 177.073 140.624 177.073 138.847C177.073 137.07 177.404 135.571 178.065 134.352C178.727 133.112 179.626 132.172 180.762 131.531C181.899 130.89 183.18 130.57 184.606 130.57C186.156 130.57 187.541 130.921 188.76 131.624C190 132.306 190.972 133.277 191.674 134.538C192.377 135.778 192.728 137.214 192.728 138.847C192.728 140.5 192.377 141.947 191.674 143.187C190.972 144.427 190 145.398 188.76 146.101C187.541 146.804 186.156 147.155 184.606 147.155ZM176.205 153.014V130.725H178.313V135.623L178.096 138.878L178.406 142.164V153.014H176.205ZM184.451 145.202C185.609 145.202 186.642 144.944 187.551 144.427C188.461 143.89 189.184 143.146 189.721 142.195C190.259 141.224 190.527 140.108 190.527 138.847C190.527 137.586 190.259 136.481 189.721 135.53C189.184 134.579 188.461 133.835 187.551 133.298C186.642 132.761 185.609 132.492 184.451 132.492C183.294 132.492 182.25 132.761 181.32 133.298C180.411 133.835 179.688 134.579 179.15 135.53C178.634 136.481 178.375 137.586 178.375 138.847C178.375 140.108 178.634 141.224 179.15 142.195C179.688 143.146 180.411 143.89 181.32 144.427C182.25 144.944 183.294 145.202 184.451 145.202ZM207.472 147V143.404L207.379 142.815V136.801C207.379 135.416 206.987 134.352 206.201 133.608C205.437 132.864 204.29 132.492 202.76 132.492C201.706 132.492 200.704 132.668 199.753 133.019C198.803 133.37 197.997 133.835 197.335 134.414L196.343 132.771C197.17 132.068 198.162 131.531 199.319 131.159C200.477 130.766 201.696 130.57 202.977 130.57C205.085 130.57 206.708 131.097 207.844 132.151C209.002 133.184 209.58 134.765 209.58 136.894V147H207.472ZM201.861 147.155C200.642 147.155 199.578 146.959 198.668 146.566C197.78 146.153 197.098 145.595 196.622 144.892C196.147 144.169 195.909 143.342 195.909 142.412C195.909 141.565 196.106 140.8 196.498 140.118C196.912 139.415 197.573 138.857 198.482 138.444C199.412 138.01 200.652 137.793 202.202 137.793H207.813V139.436H202.264C200.694 139.436 199.598 139.715 198.978 140.273C198.379 140.831 198.079 141.523 198.079 142.35C198.079 143.28 198.441 144.024 199.164 144.582C199.888 145.14 200.9 145.419 202.202 145.419C203.442 145.419 204.507 145.14 205.395 144.582C206.305 144.003 206.966 143.177 207.379 142.102L207.875 143.621C207.462 144.696 206.739 145.553 205.705 146.194C204.693 146.835 203.411 147.155 201.861 147.155ZM219.478 147.186C220.821 147.186 222.03 146.979 223.105 146.566C224.2 146.153 225.068 145.584 225.709 144.861C226.349 144.117 226.67 143.259 226.67 142.288C226.67 141.048 226.143 140.066 225.089 139.343C224.055 138.62 222.609 138.258 220.749 138.258L220.656 138.847C221.71 138.847 222.65 138.682 223.477 138.351C224.303 138.02 224.965 137.555 225.461 136.956C225.957 136.357 226.205 135.654 226.205 134.848C226.205 133.939 225.895 133.164 225.275 132.523C224.655 131.862 223.818 131.355 222.764 131.004C221.73 130.653 220.563 130.498 219.261 130.539C218.31 130.539 217.359 130.673 216.409 130.942C215.479 131.19 214.538 131.562 213.588 132.058L214.208 133.763C215.055 133.329 215.913 133.009 216.781 132.802C217.649 132.575 218.486 132.451 219.292 132.43C220.18 132.43 220.976 132.533 221.679 132.74C222.381 132.947 222.929 133.257 223.322 133.67C223.735 134.083 223.942 134.579 223.942 135.158C223.942 135.695 223.766 136.16 223.415 136.553C223.084 136.946 222.609 137.245 221.989 137.452C221.369 137.659 220.656 137.762 219.85 137.762H217.215V139.374H220.005C221.369 139.374 222.443 139.622 223.229 140.118C224.014 140.593 224.407 141.265 224.407 142.133C224.407 142.732 224.2 143.27 223.787 143.745C223.373 144.22 222.795 144.592 222.051 144.861C221.307 145.13 220.428 145.274 219.416 145.295C218.403 145.295 217.38 145.15 216.347 144.861C215.313 144.551 214.404 144.107 213.619 143.528L212.906 145.171C213.794 145.853 214.817 146.359 215.975 146.69C217.132 147.021 218.3 147.186 219.478 147.186ZM240.067 147.155C238.662 147.155 237.391 146.835 236.254 146.194C235.117 145.533 234.208 144.592 233.526 143.373C232.865 142.133 232.534 140.624 232.534 138.847C232.534 137.07 232.865 135.571 233.526 134.352C234.187 133.112 235.086 132.172 236.223 131.531C237.36 130.89 238.641 130.57 240.067 130.57C241.617 130.57 243.002 130.921 244.221 131.624C245.461 132.306 246.432 133.277 247.135 134.538C247.838 135.778 248.189 137.214 248.189 138.847C248.189 140.5 247.838 141.947 247.135 143.187C246.432 144.427 245.461 145.398 244.221 146.101C243.002 146.804 241.617 147.155 240.067 147.155ZM231.666 153.014V130.725H233.774V135.623L233.557 138.878L233.867 142.164V153.014H231.666ZM239.912 145.202C241.069 145.202 242.103 144.944 243.012 144.427C243.921 143.89 244.645 143.146 245.182 142.195C245.719 141.224 245.988 140.108 245.988 138.847C245.988 137.586 245.719 136.481 245.182 135.53C244.645 134.579 243.921 133.835 243.012 133.298C242.103 132.761 241.069 132.492 239.912 132.492C238.755 132.492 237.711 132.761 236.781 133.298C235.872 133.835 235.148 134.579 234.611 135.53C234.094 136.481 233.836 137.586 233.836 138.847C233.836 140.108 234.094 141.224 234.611 142.195C235.148 143.146 235.872 143.89 236.781 144.427C237.711 144.944 238.755 145.202 239.912 145.202ZM262.933 147V143.404L262.84 142.815V136.801C262.84 135.416 262.448 134.352 261.662 133.608C260.898 132.864 259.751 132.492 258.221 132.492C257.167 132.492 256.165 132.668 255.214 133.019C254.264 133.37 253.458 133.835 252.796 134.414L251.804 132.771C252.631 132.068 253.623 131.531 254.78 131.159C255.938 130.766 257.157 130.57 258.438 130.57C260.546 130.57 262.169 131.097 263.305 132.151C264.463 133.184 265.041 134.765 265.041 136.894V147H262.933ZM257.322 147.155C256.103 147.155 255.039 146.959 254.129 146.566C253.241 146.153 252.559 145.595 252.083 144.892C251.608 144.169 251.37 143.342 251.37 142.412C251.37 141.565 251.567 140.8 251.959 140.118C252.373 139.415 253.034 138.857 253.943 138.444C254.873 138.01 256.113 137.793 257.663 137.793H263.274V139.436H257.725C256.155 139.436 255.059 139.715 254.439 140.273C253.84 140.831 253.54 141.523 253.54 142.35C253.54 143.28 253.902 144.024 254.625 144.582C255.349 145.14 256.361 145.419 257.663 145.419C258.903 145.419 259.968 145.14 260.856 144.582C261.766 144.003 262.427 143.177 262.84 142.102L263.336 143.621C262.923 144.696 262.2 145.553 261.166 146.194C260.154 146.835 258.872 147.155 257.322 147.155ZM278.217 147.186C276.894 147.186 275.716 146.969 274.683 146.535C273.67 146.101 272.802 145.44 272.079 144.551C271.355 143.662 270.808 142.567 270.436 141.265C270.064 139.942 269.878 138.413 269.878 136.677C269.878 135.127 270.022 133.773 270.312 132.616C270.601 131.438 271.004 130.425 271.521 129.578C272.037 128.731 272.637 128.018 273.319 127.439C274.021 126.84 274.776 126.364 275.582 126.013C276.408 125.641 277.256 125.362 278.124 125.176L285.44 123.471L285.812 125.517L278.93 127.067C278.496 127.17 277.969 127.315 277.349 127.501C276.749 127.687 276.129 127.966 275.489 128.338C274.869 128.71 274.29 129.227 273.753 129.888C273.215 130.549 272.781 131.407 272.451 132.461C272.141 133.494 271.986 134.786 271.986 136.336C271.986 136.667 271.996 136.935 272.017 137.142C272.037 137.328 272.058 137.535 272.079 137.762C272.12 137.969 272.151 138.279 272.172 138.692L271.211 137.886C271.438 136.625 271.903 135.53 272.606 134.6C273.308 133.649 274.187 132.916 275.241 132.399C276.315 131.862 277.504 131.593 278.806 131.593C280.314 131.593 281.658 131.924 282.836 132.585C284.014 133.226 284.933 134.125 285.595 135.282C286.277 136.439 286.618 137.783 286.618 139.312C286.618 140.821 286.266 142.174 285.564 143.373C284.882 144.572 283.91 145.512 282.65 146.194C281.389 146.855 279.911 147.186 278.217 147.186ZM278.465 145.357C279.622 145.357 280.645 145.099 281.534 144.582C282.422 144.045 283.115 143.321 283.611 142.412C284.127 141.503 284.386 140.48 284.386 139.343C284.386 138.227 284.127 137.235 283.611 136.367C283.115 135.499 282.422 134.817 281.534 134.321C280.645 133.804 279.612 133.546 278.434 133.546C277.276 133.546 276.253 133.794 275.365 134.29C274.476 134.765 273.773 135.437 273.257 136.305C272.761 137.173 272.513 138.175 272.513 139.312C272.513 140.449 272.761 141.472 273.257 142.381C273.773 143.29 274.476 144.014 275.365 144.551C276.274 145.088 277.307 145.357 278.465 145.357ZM298.031 147.155C296.46 147.155 295.045 146.804 293.784 146.101C292.544 145.378 291.562 144.396 290.839 143.156C290.116 141.895 289.754 140.459 289.754 138.847C289.754 137.214 290.116 135.778 290.839 134.538C291.562 133.298 292.544 132.327 293.784 131.624C295.024 130.921 296.44 130.57 298.031 130.57C299.643 130.57 301.069 130.921 302.309 131.624C303.57 132.327 304.551 133.298 305.254 134.538C305.977 135.778 306.339 137.214 306.339 138.847C306.339 140.459 305.977 141.895 305.254 143.156C304.551 144.396 303.57 145.378 302.309 146.101C301.048 146.804 299.622 147.155 298.031 147.155ZM298.031 145.202C299.209 145.202 300.253 144.944 301.162 144.427C302.071 143.89 302.784 143.146 303.301 142.195C303.838 141.224 304.107 140.108 304.107 138.847C304.107 137.566 303.838 136.45 303.301 135.499C302.784 134.548 302.071 133.815 301.162 133.298C300.253 132.761 299.219 132.492 298.062 132.492C296.905 132.492 295.871 132.761 294.962 133.298C294.053 133.815 293.329 134.548 292.792 135.499C292.255 136.45 291.986 137.566 291.986 138.847C291.986 140.108 292.255 141.224 292.792 142.195C293.329 143.146 294.053 143.89 294.962 144.427C295.871 144.944 296.894 145.202 298.031 145.202ZM313.538 147V132.058L314.096 132.647H307.369V130.725H321.908V132.647H315.181L315.739 132.058V147H313.538ZM337.025 147L330.329 138.94L332.158 137.855L339.629 147H337.025ZM325.09 147V130.725H327.291V147H325.09ZM326.609 139.746V137.855H331.848V139.746H326.609ZM332.344 139.095L330.298 138.785L336.777 130.725H339.164L332.344 139.095ZM352.906 147V143.404L352.813 142.815V136.801C352.813 135.416 352.42 134.352 351.635 133.608C350.87 132.864 349.723 132.492 348.194 132.492C347.14 132.492 346.138 132.668 345.187 133.019C344.236 133.37 343.43 133.835 342.769 134.414L341.777 132.771C342.604 132.068 343.596 131.531 344.753 131.159C345.91 130.766 347.13 130.57 348.411 130.57C350.519 130.57 352.141 131.097 353.278 132.151C354.435 133.184 355.014 134.765 355.014 136.894V147H352.906ZM347.295 147.155C346.076 147.155 345.011 146.959 344.102 146.566C343.213 146.153 342.531 145.595 342.056 144.892C341.581 144.169 341.343 143.342 341.343 142.412C341.343 141.565 341.539 140.8 341.932 140.118C342.345 139.415 343.007 138.857 343.916 138.444C344.846 138.01 346.086 137.793 347.636 137.793H353.247V139.436H347.698C346.127 139.436 345.032 139.715 344.412 140.273C343.813 140.831 343.513 141.523 343.513 142.35C343.513 143.28 343.875 144.024 344.598 144.582C345.321 145.14 346.334 145.419 347.636 145.419C348.876 145.419 349.94 145.14 350.829 144.582C351.738 144.003 352.4 143.177 352.813 142.102L353.309 143.621C352.896 144.696 352.172 145.553 351.139 146.194C350.126 146.835 348.845 147.155 347.295 147.155ZM369.761 140.304C369.307 140.304 368.914 140.139 368.583 139.808C368.273 139.477 368.118 139.074 368.118 138.599C368.118 138.103 368.273 137.7 368.583 137.39C368.914 137.059 369.307 136.894 369.761 136.894C370.237 136.894 370.629 137.059 370.939 137.39C371.249 137.7 371.404 138.103 371.404 138.599C371.404 139.074 371.249 139.477 370.939 139.808C370.629 140.139 370.237 140.304 369.761 140.304ZM384.91 147V130.725H387.142L394.52 143.218H393.59L401.092 130.725H403.138V147H401.123V133.236L401.526 133.422L394.52 145.016H393.528L386.46 133.298L386.925 133.205V147H384.91ZM419.508 147V143.404L419.415 142.815V136.801C419.415 135.416 419.022 134.352 418.237 133.608C417.472 132.864 416.325 132.492 414.796 132.492C413.742 132.492 412.739 132.668 411.789 133.019C410.838 133.37 410.032 133.835 409.371 134.414L408.379 132.771C409.205 132.068 410.197 131.531 411.355 131.159C412.512 130.766 413.731 130.57 415.013 130.57C417.121 130.57 418.743 131.097 419.88 132.151C421.037 133.184 421.616 134.765 421.616 136.894V147H419.508ZM413.897 147.155C412.677 147.155 411.613 146.959 410.704 146.566C409.815 146.153 409.133 145.595 408.658 144.892C408.182 144.169 407.945 143.342 407.945 142.412C407.945 141.565 408.141 140.8 408.534 140.118C408.947 139.415 409.608 138.857 410.518 138.444C411.448 138.01 412.688 137.793 414.238 137.793H419.849V139.436H414.3C412.729 139.436 411.634 139.715 411.014 140.273C410.414 140.831 410.115 141.523 410.115 142.35C410.115 143.28 410.476 144.024 411.2 144.582C411.923 145.14 412.936 145.419 414.238 145.419C415.478 145.419 416.542 145.14 417.431 144.582C418.34 144.003 419.001 143.177 419.415 142.102L419.911 143.621C419.497 144.696 418.774 145.553 417.741 146.194C416.728 146.835 415.447 147.155 413.897 147.155ZM435.876 147.155C434.47 147.155 433.199 146.835 432.063 146.194C430.926 145.533 430.017 144.592 429.335 143.373C428.673 142.133 428.343 140.624 428.343 138.847C428.343 137.07 428.673 135.571 429.335 134.352C429.996 133.112 430.895 132.172 432.032 131.531C433.168 130.89 434.45 130.57 435.876 130.57C437.426 130.57 438.81 130.921 440.03 131.624C441.27 132.306 442.241 133.277 442.944 134.538C443.646 135.778 443.998 137.214 443.998 138.847C443.998 140.5 443.646 141.947 442.944 143.187C442.241 144.427 441.27 145.398 440.03 146.101C438.81 146.804 437.426 147.155 435.876 147.155ZM427.475 153.014V130.725H429.583V135.623L429.366 138.878L429.676 142.164V153.014H427.475ZM435.721 145.202C436.878 145.202 437.911 144.944 438.821 144.427C439.73 143.89 440.453 143.146 440.991 142.195C441.528 141.224 441.797 140.108 441.797 138.847C441.797 137.586 441.528 136.481 440.991 135.53C440.453 134.579 439.73 133.835 438.821 133.298C437.911 132.761 436.878 132.492 435.721 132.492C434.563 132.492 433.52 132.761 432.59 133.298C431.68 133.835 430.957 134.579 430.42 135.53C429.903 136.481 429.645 137.586 429.645 138.847C429.645 140.108 429.903 141.224 430.42 142.195C430.957 143.146 431.68 143.89 432.59 144.427C433.52 144.944 434.563 145.202 435.721 145.202ZM460.662 147L453.966 138.94L455.795 137.855L463.266 147H460.662ZM448.727 147V130.725H450.928V147H448.727ZM450.246 139.746V137.855H455.485V139.746H450.246ZM455.981 139.095L453.935 138.785L460.414 130.725H462.801L455.981 139.095ZM473.139 147.155C471.445 147.155 469.957 146.804 468.675 146.101C467.394 145.378 466.392 144.396 465.668 143.156C464.945 141.895 464.583 140.459 464.583 138.847C464.583 137.235 464.924 135.809 465.606 134.569C466.309 133.329 467.26 132.358 468.458 131.655C469.678 130.932 471.042 130.57 472.55 130.57C474.08 130.57 475.433 130.921 476.611 131.624C477.81 132.306 478.75 133.277 479.432 134.538C480.114 135.778 480.455 137.214 480.455 138.847C480.455 138.95 480.445 139.064 480.424 139.188C480.424 139.291 480.424 139.405 480.424 139.529H466.257V137.886H479.246L478.378 138.537C478.378 137.359 478.12 136.315 477.603 135.406C477.107 134.476 476.425 133.753 475.557 133.236C474.689 132.719 473.687 132.461 472.55 132.461C471.434 132.461 470.432 132.719 469.543 133.236C468.655 133.753 467.962 134.476 467.466 135.406C466.97 136.336 466.722 137.4 466.722 138.599V138.94C466.722 140.18 466.991 141.275 467.528 142.226C468.086 143.156 468.851 143.89 469.822 144.427C470.814 144.944 471.941 145.202 473.201 145.202C474.193 145.202 475.113 145.026 475.96 144.675C476.828 144.324 477.572 143.786 478.192 143.063L479.432 144.489C478.709 145.357 477.8 146.018 476.704 146.473C475.63 146.928 474.441 147.155 473.139 147.155ZM487.701 147V132.058L488.259 132.647H481.532V130.725H496.071V132.647H489.344L489.902 132.058V147H487.701ZM499.253 147V130.725H501.454V143.652L512.335 130.725H514.288V147H512.087V134.042L501.237 147H499.253ZM520.596 147V130.725H522.797V137.917H533.058V130.725H535.259V147H533.058V139.808H522.797V147H520.596ZM541.515 147V130.725H553.047V132.647H543.158L543.716 132.089V147H541.515Z" fill="#6B6B6B"/>
</svg>
